<?xml version="1.0" encoding="utf-8"?>
<!-- Generator: Adobe Illustrator 26.1.0, SVG Export Plug-In . SVG Version: 6.00 Build 0)  -->
<svg version="1.1" id="Layer_1" xmlns="http://www.w3.org/2000/svg" xmlns:xlink="http://www.w3.org/1999/xlink" x="0px" y="0px"
	 viewBox="0 0 262.3103943 245.8404083" style="enable-background:new 0 0 262.3103943 245.8404083;" xml:space="preserve">
<style type="text/css">
	.st0{fill:#FFFFFF;}
</style>
<path class="st0" d="M126.6874771,0.11413c39.4245224,0,78.8495102,0.105,118.27285-0.11372
	c5.881424-0.03273,6.6564941,1.8663,7.0039978,7.4739299c0.6834717,11.0219994,1.6214447,22.4248409,5.0828552,32.792511
	c6.5740662,19.6911888,7.5363159,38.5013695-1.7935944,57.4657707c-6.057785,12.3135529-6.1813812,24.9435425-0.1758728,37.360672
	c9.2338104,19.0924683,9.3946075,38.1828308,1.8036652,57.9559479c-4.7190857,12.2918854-7.234726,25.2663116-4.2103119,38.5818939
	c0.6777649,2.8430328,1.6375275,5.6113586,2.8650055,8.2638092c1.7733154,3.9282532,0.3240051,5.613739-3.5911102,5.6725922
	c-6.0789948,0.0915833-12.1614532-0.0454407-18.2400055,0.0522766c-4.2578735,0.068512-5.6598969-2.9168243-6.8695526-6.1065063
	c-4.8657532-12.8303375-3.4074707-25.7390747-0.5666962-38.714447c1.1548767-4.7459106,1.8792725-9.586319,2.1643677-14.4623871
	c0.4430847-12.9666595-7.2961731-18.7857056-20.5997314-17.2829132
	c-8.9962616,1.0161438-15.5178375,6.2319946-20.1371002,13.7591248
	c-8.8366241,14.399765-11.3922882,30.2563934-9.9714355,46.8240051c0.2745514,3.1991119,1.8564148,6.3471375,3.1508331,9.3840027
	c2.0480652,4.8047791,1.2254486,6.3805542-4.1017761,6.553833c-4.7026062,0.1529999-9.4485321-0.3211365-14.1122894,0.131134
	c-5.8621368,0.5688171-8.5333862-2.2955017-10.1998138-7.3985901c-3.9732208-12.1678162-2.8769989-24.2836151-0.2782898-36.4843903
	c1.0971375-5.1511078,2.4329987-10.3789978,2.5224609-15.5915375c0.2128296-12.3856049-8.0149231-18.933548-20.3042603-17.2353516
	c-7.9249954,0.9147949-15.0197296,5.3415985-19.324852,12.0578766
	c-10.0853882,15.3358459-13.3591309,32.3265839-10.7815704,50.4424744c0.3619537,2.1182556,1.0101624,4.177475,1.9268112,6.121109
	c3.0910721,6.9875031,2.5015106,7.9447937-5.3102722,7.9930573c-4.1190033,0.0256653-8.2932434-0.4223633-12.344162,0.10289
	c-6.4295273,0.8339233-9.2357025-2.5062256-10.9708557-7.9342041c-3.9039993-12.2116089-2.5910034-24.3631897,0.1014709-36.5420685
	c0.9078522-3.5936584,1.6001663-7.2383575,2.0732498-10.9145966c1.7132721-17.4933929-9.1292801-25.7579041-25.7614403-19.8336334
	c-7.0254211,2.5024567-11.9159012,7.4091797-15.5389977,13.6637726
	c-8.2438011,14.2314148-10.5816898,29.7339935-9.1577702,45.8742981c0.2655697,3.0126343,1.7118607,5.9951477,2.9761486,8.8295746
	c2.2936211,5.1421661,1.516449,6.6037445-4.2347698,6.7306519c-5.0972004,0.1123047-10.2396202-0.3755188-15.2873802,0.1365509
	c-5.48281,0.5563354-7.9180002-2.2625427-9.44594-6.7546692C-0.66,227.264267-0.05448,215.4152374,2.6033599,203.6154022
	c1.3303008-5.910614,3.0329077-11.7312164,5.09764-17.427002c5.4854298-15.1077118,5.3947906-30.0720062-1.6061502-44.5101776
	c-8.1922398-16.8949127-8.07335-33.3650894,0.0388498-50.2032623c7.0887504-14.7135925,6.9241805-29.7972908,1.2711201-45.0570984
	C2.6791699,33.6612206-0.05777,20.5243397,0.68244,6.7567301C0.95013,1.78031,2.7272,0.00018,7.8260698,0.0216
	C47.4459991,0.18923,87.0668793,0.11413,126.6874771,0.11413z M73.3300781,112.9641266
	c3.0409241-8.4951935,5.6304626-16.0362244,8.4399185-23.4941254c3.0955505-8.2172012,4.4789429-16.4960785,2.5222321-25.2489014
	c-2.721405-12.1727791-11.4309006-18.0721016-25.476799-16.9189415
	c-11.9230003,0.9787102-17.977211,8.0848808-19.2116013,20.3579369c-0.8479996,8.4337997-3.1138802,16.7779007-5.3305092,25.0042801
	c-1.8043785,6.6959991-4.4765892,13.1578293-6.9644394,20.2997894L73.3300781,112.9641266z M221.8654327,112.9645996
	c2.8120575-7.9570007,5.380661-15.467926,8.1216125-22.9152527c2.9403534-7.9890594,4.7223816-15.977417,2.9024658-24.6127472
	c-2.7837982-13.2085991-10.443512-18.9869499-24.9454193-18.1755981
	c-12.1235657,0.6780586-19.2928314,7.4765205-19.6401062,20.3199997
	c-0.2768707,10.2461929-3.2744141,19.5162582-6.9081726,28.8294144c-2.0327606,5.2095032-3.4757538,10.6492615-5.3667755,16.5542297
	L221.8654327,112.9645996z M102.2642822,112.9944992h45.6327209c2.9933472-8.4017792,5.7248688-16.4944305,8.7594147-24.4720001
	c3.2323151-8.4969025,4.102005-17.08255,1.7259979-25.8937607c-3.0486603-11.3058891-11.4273682-16.4247398-24.9320068-15.3384399
	c-11.4769974,0.9231491-18.0381927,6.9920006-18.6839981,18.6369019
	c-0.7191925,10.9302673-3.3447113,21.6504974-7.7578583,31.6760712c-2.0012207,4.7370758-3.0759888,9.8655777-4.7442627,15.3912811
	L102.2642822,112.9944992z"/>
</svg>
