<?xml version="1.0" encoding="utf-8"?>
<!-- Generator: Adobe Illustrator 21.1.0, SVG Export Plug-In . SVG Version: 6.00 Build 0)  -->
<svg version="1.1" id="Layer_1" xmlns="http://www.w3.org/2000/svg" xmlns:xlink="http://www.w3.org/1999/xlink" x="0px" y="0px"
	 viewBox="0 0 64.6800842 90.0000076" style="enable-background:new 0 0 64.6800842 90.0000076;" xml:space="preserve">
<path d="M58.3200455,36.6200066h-2.4700012l-0.0100021-12.3099995C55.83004,10.9000063,44.9200439-0.0099934,31.5100403,0.0000069
	S7.1900434,10.9200068,7.2000437,24.3300076L7.2200441,36.640007H6.3400431
	c-4.6100006,0.0099983-6.3500004,3.75-6.3400002,8.3600006v36.6500015c0,4.6100006,1.75,8.3499985,6.3600006,8.3499985
	l51.9799995-0.0299988c4.6100006,0,6.3499985-3.7399979,6.3399963-8.3499985V44.9600067
	C64.6800385,40.3500061,62.9300385,36.6200066,58.3200455,36.6200066z M16.1800423,36.640007l-0.0200005-12.3100014
	c0-8.4700022,6.8800011-15.3600006,15.3499985-15.3700008c8.4700012,0,15.3600006,6.8900003,15.3600006,15.3500004
	l0.0199966,12.3100014L16.1800423,36.640007z"/>
</svg>
