<?xml version="1.0" encoding="utf-8"?>
<!-- Generator: Adobe Illustrator 21.1.0, SVG Export Plug-In . SVG Version: 6.00 Build 0)  -->
<svg version="1.1" id="Layer_1" xmlns="http://www.w3.org/2000/svg" xmlns:xlink="http://www.w3.org/1999/xlink" x="0px" y="0px"
	 viewBox="0 0 531.4 538.1" style="enable-background:new 0 0 531.4 538.1;" xml:space="preserve">
<style type="text/css">
	.st0{fill:#FFFFFF;}
</style>
<g>
	<path class="st0" d="M264.3,408c77.3,0,140.2-62.9,140.2-140.2c0-77.3-62.9-140.3-140.2-140.3c-77.3,0-140.3,62.9-140.3,140.3
		C124.1,345.1,187,408,264.3,408z M264.3,166.8c55.6,0,100.9,45.3,100.9,100.9S320,368.6,264.3,368.6s-100.9-45.3-100.9-100.9
		S208.7,166.8,264.3,166.8z"/>
	<path class="st0" d="M453.5,78.6c-7.7-7.7-20.2-7.7-27.8,0L394,110.2c-7.7,7.7-7.7,20.2,0,27.8c3.8,3.8,8.9,5.8,13.9,5.8
		c5,0,10.1-1.9,13.9-5.8l31.7-31.7C461.2,98.7,461.2,86.2,453.5,78.6z"/>
	<path class="st0" d="M103,456.9l31.7-31.7c7.7-7.7,7.7-20.2,0-27.8s-20.2-7.7-27.8,0L75.2,429c-7.7,7.7-7.7,20.2,0,27.8
		c3.8,3.8,8.9,5.8,13.9,5.8C94.1,462.6,99.2,460.7,103,456.9z"/>
	<path class="st0" d="M242.6,19.7v47.2c0,10.9,8.8,19.7,19.7,19.7c10.9,0,19.7-8.8,19.7-19.7V19.7C282,8.8,273.2,0,262.3,0
		C251.4,0,242.6,8.8,242.6,19.7z"/>
	<path class="st0" d="M282,518.4v-47.2c0-10.9-8.8-19.7-19.7-19.7c-10.9,0-19.7,8.8-19.7,19.7v47.2c0,10.9,8.8,19.7,19.7,19.7
		C273.2,538.1,282,529.3,282,518.4z"/>
	<path class="st0" d="M103,78.6c-7.7-7.7-20.2-7.7-27.8,0s-7.7,20.2,0,27.8l31.7,31.7c3.8,3.8,8.9,5.8,13.9,5.8
		c5,0,10.1-1.9,13.9-5.8c7.7-7.7,7.7-20.2,0-27.8L103,78.6z"/>
	<path class="st0" d="M421.8,397.4c-7.7-7.7-20.2-7.7-27.8,0s-7.7,20.2,0,27.8l31.7,31.7c3.8,3.8,8.9,5.8,13.9,5.8
		c5,0,10.1-1.9,13.9-5.8c7.7-7.7,7.7-20.2,0-27.8L421.8,397.4z"/>
	<path class="st0" d="M19.7,249.4C8.8,249.4,0,258.2,0,269.1s8.8,19.7,19.7,19.7h40.4c10.9,0,19.7-8.8,19.7-19.7
		s-8.8-19.7-19.7-19.7H19.7z"/>
	<path class="st0" d="M511.7,249.4h-47.2c-10.9,0-19.7,8.8-19.7,19.7s8.8,19.7,19.7,19.7h47.2c10.9,0,19.7-8.8,19.7-19.7
		S522.6,249.4,511.7,249.4z"/>
</g>
</svg>
