<?xml version="1.0" encoding="utf-8"?>
<!-- Generator: Adobe Illustrator 21.1.0, SVG Export Plug-In . SVG Version: 6.00 Build 0)  -->
<svg version="1.1" id="Layer_1" xmlns="http://www.w3.org/2000/svg" xmlns:xlink="http://www.w3.org/1999/xlink" x="0px" y="0px"
	 viewBox="0 0 531.3759766 538.1309814" style="enable-background:new 0 0 531.3759766 538.1309814;" xml:space="preserve">
<style type="text/css">
	.st0{stroke:#000000;stroke-width:14;stroke-miterlimit:10;}
</style>
<g>
	<path class="st0" d="M264.3380127,407.9730225c77.3359985,0,140.25-62.9179993,140.25-140.25
		c0-77.3360138-62.9180298-140.2500153-140.25-140.2500153c-77.3360138,0-140.2500153,62.9179993-140.2500153,140.2500153
		C124.0879974,345.059021,187.0059967,407.9730225,264.3380127,407.9730225z M264.3380127,166.8430023
		c55.625,0,100.8800049,45.2539978,100.8800049,100.8800201s-45.2540283,100.8800049-100.8800049,100.8800049
		s-100.8800201-45.2539978-100.8800201-100.8800049S208.7119904,166.8430023,264.3380127,166.8430023z"/>
	<path class="st0" d="M453.4979858,78.5590057c-7.6875-7.6875-20.1519775-7.6875-27.8439941,0l-31.6759644,31.6760101
		c-7.6875,7.6874847-7.6875,20.1559906,0,27.8439941c3.843811,3.8437958,8.8828125,5.7655945,13.9219971,5.7655945
		c5.0390625,0,10.0780029-1.9219055,13.9219971-5.7655945l31.6759644-31.6759949
		C461.1854858,98.7116089,461.1854858,86.2470093,453.4979858,78.5590057z"/>
	<path class="st0" d="M103.0279999,456.8730164l31.6759949-31.6759949c7.6875-7.6875,7.6875-20.1560059,0-27.8439941
		s-20.1520081-7.6875-27.8439941,0l-31.6759949,31.6759949c-7.6875,7.6875-7.6875,20.1560059,0,27.8439941
		c3.8437958,3.843811,8.8827972,5.7655945,13.9219971,5.7655945
		C94.1450958,462.6386108,99.1840057,460.7167053,103.0279999,456.8730164z"/>
	<path class="st0" d="M242.628006,19.6880074v47.1800041c0,10.8710022,8.8164062,19.6879883,19.687973,19.6879883
		c10.871582,0,19.6879883-8.816391,19.6879883-19.6880035V19.6879997C282.0039673,8.8169994,273.187561,0,262.315979,0
		C251.4444122,0,242.628006,8.8163986,242.628006,19.6880074z"/>
	<path class="st0" d="M282.0079956,518.4429932V471.263031c0-10.8710022-8.8164062-19.6879883-19.6879883-19.6879883
		c-10.8715668,0-19.687973,8.8164062-19.687973,19.6879883v47.1799622c0,10.8709717,8.8164062,19.6879883,19.687973,19.6879883
		C273.1950073,538.1309814,282.0079956,529.3145752,282.0079956,518.4429932z"/>
	<path class="st0" d="M103.0279999,78.5550079c-7.6875-7.6875-20.1560059-7.6875-27.8439941,0s-7.6875,20.1519928,0,27.8439941
		l31.6759949,31.6759949c3.8437958,3.8437958,8.8827972,5.7655945,13.9219971,5.7655945
		c5.039093,0,10.0780029-1.9219055,13.9219971-5.7655945c7.6875-7.6875,7.6875-20.1520081,0-27.8439941L103.0279999,78.5550079z"/>
	<path class="st0" d="M421.8179932,397.3530273c-7.6875-7.6875-20.1560059-7.6875-27.8439941,0s-7.6875,20.1520081,0,27.8439941
		l31.6760254,31.6759949c3.84375,3.843811,8.8827515,5.7655945,13.9219971,5.7655945
		c5.0391235,0,10.0780029-1.9219055,13.9219971-5.7655945c7.6875-7.6875,7.6875-20.1520081,0-27.8439941L421.8179932,397.3530273z"
		/>
	<path class="st0" d="M19.6880035,249.3730011C8.8170013,249.3730011,0,258.1894226,0,269.0610046
		s8.8163986,19.6879883,19.6880035,19.6879883h40.4380035c10.8710022,0,19.6880035-8.8164062,19.6880035-19.6879883
		s-8.8164062-19.6880035-19.6880035-19.6880035H19.6880035z"/>
	<path class="st0" d="M511.6879883,249.3730011h-47.1799927c-10.8709717,0-19.6879883,8.8164215-19.6879883,19.6880035
		s8.8164062,19.6879883,19.6879883,19.6879883h47.1799927c10.8709717,0,19.6879883-8.8164062,19.6879883-19.6879883
		S522.5634766,249.3730011,511.6879883,249.3730011z"/>
</g>
</svg>
