<svg width="32" height="32" viewBox="0 0 32 32" fill="none" xmlns="http://www.w3.org/2000/svg">
<rect width="32" height="32" rx="7" fill="white"/>
<path d="M9.70858 11.7354C13.4594 8.08821 19.5406 8.08821 23.2914 11.7354L23.7429 12.1743C23.9304 12.3567 23.9304 12.6523 23.7429 12.8347L22.1987 14.3362C22.1049 14.4274 21.9529 14.4274 21.8591 14.3362L21.2379 13.7322C18.6212 11.1878 14.3788 11.1878 11.7621 13.7322L11.0969 14.379C11.0031 14.4702 10.8511 14.4702 10.7573 14.379L9.21311 12.8775C9.02557 12.6951 9.02557 12.3995 9.21311 12.2171L9.70858 11.7354ZM26.485 14.8407L27.8593 16.177C28.0469 16.3594 28.0469 16.655 27.8593 16.8374L21.6623 22.8632C21.4748 23.0456 21.1707 23.0456 20.9832 22.8632L16.5849 18.5865C16.538 18.5409 16.462 18.5409 16.4151 18.5865L12.017 22.8632C11.8294 23.0456 11.5254 23.0456 11.3378 22.8632L5.14066 16.8373C4.95311 16.655 4.95311 16.3593 5.14066 16.1769L6.515 14.8406C6.70254 14.6582 7.0066 14.6582 7.19414 14.8406L11.5925 19.1174C11.6394 19.1629 11.7154 19.1629 11.7623 19.1174L16.1604 14.8406C16.3479 14.6582 16.652 14.6582 16.8395 14.8406L21.2378 19.1174C21.2847 19.1629 21.3607 19.1629 21.4076 19.1174L25.8059 14.8407C25.9934 14.6583 26.2975 14.6583 26.485 14.8407Z" fill="#3B99FC"/>
</svg>
