<?xml version="1.0" standalone="no"?>
<!DOCTYPE svg PUBLIC "-//W3C//DTD SVG 20010904//EN"
 "http://www.w3.org/TR/2001/REC-SVG-20010904/DTD/svg10.dtd">
<svg version="1.0" xmlns="http://www.w3.org/2000/svg"
 width="700.000000pt" height="700.000000pt" viewBox="0 0 700.000000 700.000000"
 preserveAspectRatio="xMidYMid meet">
<metadata>
Created by potrace 1.14, written by Peter Selinger 2001-2017
</metadata>
<g transform="translate(0.000000,700.000000) scale(0.100000,-0.100000)"
fill="#000000" stroke="none">
<path d="M1120 5923 c-40 -12 -60 -28 -71 -56 -20 -48 -16 -327 6 -438 3 -13
8 -37 11 -54 13 -75 58 -239 95 -345 61 -174 80 -275 84 -430 4 -194 -26 -324
-125 -535 -24 -52 -66 -182 -76 -240 -21 -119 -25 -274 -10 -366 14 -86 50
-200 105 -331 53 -127 69 -177 101 -322 9 -42 6 -293 -4 -341 -19 -82 -49
-189 -77 -270 -37 -109 -97 -338 -105 -403 -3 -25 -8 -50 -11 -55 -3 -5 -7
-75 -8 -156 -5 -252 52 -463 136 -506 24 -13 69 -15 242 -15 231 2 260 7 265
51 2 13 -11 57 -28 96 -49 117 -58 175 -55 350 1 87 6 178 10 203 47 296 165
558 310 688 90 80 258 142 376 137 193 -7 301 -136 301 -360 1 -65 -10 -139
-35 -265 -47 -227 -52 -268 -51 -435 1 -242 60 -421 151 -456 30 -11 429 -10
460 1 36 14 35 41 -6 156 -21 60 -39 129 -40 152 0 24 -3 48 -6 52 -7 12 -7
232 0 290 26 209 88 395 189 565 119 198 260 286 476 299 39 2 135 -16 163
-31 124 -63 177 -170 171 -341 -2 -61 -6 -93 -30 -202 -14 -69 -35 -179 -40
-210 -3 -19 -7 -46 -10 -60 -13 -67 -12 -299 1 -370 23 -123 25 -128 46 -186
22 -57 57 -99 98 -115 35 -14 412 -10 442 4 36 18 34 53 -5 155 -45 116 -53
169 -50 344 3 244 48 436 144 629 139 277 309 391 560 376 140 -8 218 -56 267
-164 24 -51 27 -71 27 -158 0 -113 -2 -122 -43 -330 -65 -326 -60 -536 16
-745 20 -53 46 -90 76 -107 23 -13 422 -18 467 -6 40 11 43 46 9 134 -77 199
-88 411 -34 673 3 15 34 114 70 220 55 167 70 221 93 336 2 14 6 106 7 205 3
145 0 197 -15 267 -23 107 -67 239 -113 338 -126 274 -123 489 11 781 55 119
95 255 110 367 14 115 8 362 -13 452 -3 14 -8 41 -11 60 -3 19 -28 112 -55
205 -26 94 -51 184 -54 200 -2 17 -7 41 -10 55 -3 14 -8 45 -11 70 -3 25 -7
56 -9 70 -5 29 -13 124 -20 229 -10 136 -21 171 -60 189 -22 10 -4773 16
-4805 5z m1291 -954 c177 -56 275 -211 284 -449 6 -153 -5 -200 -156 -622
l-74 -208 -453 0 c-429 0 -454 1 -447 18 38 88 139 408 168 528 44 183 51 217
61 299 14 108 18 129 36 189 35 110 104 191 200 233 97 42 270 48 381 12z
m1442 10 c205 -48 313 -226 310 -509 0 -41 -8 -108 -16 -148 -13 -58 -141
-435 -201 -592 l-14 -35 -446 -3 c-289 -1 -446 1 -446 8 0 20 63 225 94 308
36 94 92 265 100 303 32 159 49 275 48 329 0 72 48 190 102 246 49 51 163 98
261 107 54 4 159 -2 208 -14z m1467 -5 c76 -21 131 -55 179 -111 53 -59 79
-117 108 -238 3 -11 6 -65 8 -120 5 -148 -5 -186 -149 -595 -42 -118 -76 -216
-76 -217 0 -2 -202 -3 -450 -3 -247 0 -450 4 -450 9 0 9 78 247 148 452 50
143 78 275 87 399 14 188 43 270 125 343 103 92 306 127 470 81z"/>
</g>
</svg>
